<svg width="35" height="35" viewBox="0 0 35 35" fill="none" xmlns="http://www.w3.org/2000/svg">
<path opacity="0.55" d="M33.297 11.026C32.6569 9.56206 31.8096 8.19776 30.781 6.97502C29.2617 5.11117 27.3647 3.59041 25.2149 2.51293C23.0652 1.43544 20.7115 0.825687 18.309 0.723834C15.9065 0.62198 13.5097 1.03034 11.2765 1.92201C9.04329 2.81368 7.02435 4.16842 5.35269 5.89698C3.68104 7.62555 2.39462 9.68869 1.57818 11.9505C0.761739 14.2123 0.433813 16.6214 0.616005 19.0192C0.798197 21.4169 1.48637 23.7488 2.63519 25.8613C3.78401 27.9738 5.3674 29.8189 7.28104 31.275C8.50785 32.2277 9.86328 33.0021 11.307 33.575C13.3312 34.4045 15.4975 34.8318 17.685 34.833C22.1995 34.823 26.5259 33.0238 29.7163 29.8299C32.9067 26.6359 34.701 22.3075 34.706 17.793C34.7093 15.4639 34.2296 13.1593 33.297 11.025V11.026ZM17.672 4.19302C19.6366 4.19345 21.5772 4.62349 23.358 5.45302C22.9236 5.64071 22.4669 5.77179 21.999 5.84302C20.4605 6.06609 19.0352 6.78057 17.9359 7.87988C16.8366 8.9792 16.1221 10.4044 15.899 11.943C15.8013 12.8062 15.4088 13.6092 14.7878 14.2166C14.1667 14.824 13.3552 15.1985 12.49 15.277C10.9515 15.5001 9.52623 16.2146 8.42691 17.3139C7.3276 18.4132 6.61312 19.8384 6.39004 21.377C6.31457 22.1978 5.96434 22.969 5.39604 23.566C4.41541 21.4943 3.97482 19.2082 4.11527 16.9204C4.25573 14.6327 4.97266 12.4176 6.19934 10.4814C7.42603 8.54524 9.1226 6.95084 11.1312 5.84663C13.1397 4.74242 15.395 4.16428 17.687 4.16602L17.672 4.19302ZM7.26804 26.601C7.41904 26.463 7.56804 26.337 7.72104 26.186C8.84016 25.101 9.55856 23.6688 9.75904 22.123C9.84003 21.2539 10.2279 20.4421 10.853 19.833C11.4547 19.2068 12.2645 18.822 13.13 18.751C14.6686 18.5279 16.0939 17.8135 17.1932 16.7141C18.2925 15.6148 19.007 14.1896 19.23 12.651C19.285 11.7432 19.6748 10.888 20.324 10.251C20.94 9.63748 21.7567 9.26679 22.624 9.20702C24.0413 9.01265 25.3631 8.38218 26.406 7.40302C27.5922 8.38766 28.597 9.57218 29.375 10.903C29.3271 10.9676 29.2721 11.0266 29.211 11.079C28.6106 11.7108 27.8018 12.104 26.934 12.186C25.3938 12.4051 23.9664 13.1182 22.8663 14.2183C21.7663 15.3184 21.0531 16.7458 20.834 18.286C20.7453 19.152 20.3599 19.9606 19.7432 20.575C19.1265 21.1893 18.3163 21.5716 17.45 21.657C15.9067 21.878 14.4758 22.5909 13.3698 23.6898C12.2639 24.7888 11.5419 26.2151 11.311 27.757C11.2434 28.3716 11.0324 28.9618 10.695 29.48C9.40424 28.7136 8.24816 27.7403 7.27304 26.599L7.26804 26.601ZM17.668 31.457C16.3915 31.4585 15.1211 31.2808 13.894 30.929C14.3138 30.1465 14.5866 29.2938 14.699 28.413C14.7873 27.5491 15.1708 26.742 15.7849 26.1279C16.399 25.5138 17.2061 25.1303 18.07 25.042C19.6112 24.8219 21.0397 24.1087 22.1418 23.0091C23.2439 21.9095 23.9604 20.4827 24.184 18.942C24.2723 18.0781 24.6558 17.271 25.2699 16.6569C25.884 16.0428 26.6911 15.6593 27.555 15.571C28.7151 15.4202 29.8208 14.9884 30.776 14.313C31.3055 16.3226 31.3678 18.4267 30.9582 20.4641C30.5486 22.5015 29.678 24.418 28.413 26.0668C27.148 27.7156 25.5223 29.0529 23.6605 29.9761C21.7987 30.8994 19.7502 31.384 17.672 31.393L17.668 31.457Z" fill="#394149"/>
</svg>
