<svg width="36" height="30" viewBox="0 0 36 30" fill="none" xmlns="http://www.w3.org/2000/svg">
<path opacity="0.55" d="M1.37904 13.131C2.30716 9.40062 4.45664 6.08801 7.48525 3.72059C10.5138 1.35317 14.2474 0.0670776 18.0915 0.0670776C21.9356 0.0670776 25.6692 1.35317 28.6978 3.72059C31.7264 6.08801 33.8759 9.40062 34.804 13.131H33.294C30.7481 13.0939 28.2545 13.8548 26.163 15.307C26.0424 15.3944 25.9165 15.4742 25.786 15.546H25.61C25.4795 15.4742 25.3536 15.3944 25.233 15.307C23.1226 13.8879 20.6372 13.13 18.094 13.13C15.5509 13.13 13.0654 13.8879 10.955 15.307C10.8344 15.3944 10.7085 15.4742 10.578 15.546H10.402C10.2715 15.4742 10.1456 15.3944 10.025 15.307C7.93304 13.8544 5.43863 13.0934 2.89204 13.131H1.37904ZM30.579 21.019C31.354 20.4156 32.3143 20.1 33.296 20.126H35.321V16.087H33.295C31.5656 16.0662 29.8757 16.6046 28.477 17.622C27.6899 18.2024 26.7376 18.5156 25.7595 18.5156C24.7815 18.5156 23.8292 18.2024 23.042 17.622C21.6078 16.6235 19.9021 16.0882 18.1545 16.0882C16.4069 16.0882 14.7013 16.6235 13.267 17.622C12.4799 18.2024 11.5276 18.5156 10.5495 18.5156C9.57152 18.5156 8.6192 18.2024 7.83204 17.622C6.41607 16.5915 4.70193 16.0525 2.95104 16.087H0.863037V20.125H2.88804C3.86979 20.099 4.83012 20.4146 5.60504 21.018C7.03663 22.017 8.74031 22.5527 10.486 22.5527C12.2318 22.5527 13.9354 22.017 15.367 21.018C16.1429 20.4165 17.1026 20.1011 18.084 20.125C19.0661 20.0968 20.0272 20.4127 20.801 21.018C22.2353 22.0165 23.9409 22.5518 25.6885 22.5518C27.4361 22.5518 29.1418 22.0165 30.576 21.018L30.579 21.019ZM30.579 28.24C31.354 27.6366 32.3143 27.321 33.296 27.347H35.321V23.308H33.295C31.5656 23.2872 29.8757 23.8256 28.477 24.843C27.6899 25.4234 26.7376 25.7366 25.7595 25.7366C24.7815 25.7366 23.8292 25.4234 23.042 24.843C21.6077 23.8446 19.9021 23.3094 18.1545 23.3094C16.407 23.3094 14.7013 23.8446 13.267 24.843C12.4799 25.4234 11.5276 25.7366 10.5495 25.7366C9.57152 25.7366 8.6192 25.4234 7.83204 24.843C6.41604 23.8126 4.70192 23.2735 2.95104 23.308H0.863037V27.347H2.88804C3.86979 27.321 4.83012 27.6366 5.60504 28.24C7.03663 29.239 8.74031 29.7747 10.486 29.7747C12.2318 29.7747 13.9354 29.239 15.367 28.24C16.1429 27.6385 17.1026 27.3231 18.084 27.347C19.0661 27.3188 20.0272 27.6347 20.801 28.24C22.2353 29.2385 23.9409 29.7738 25.6885 29.7738C27.4361 29.7738 29.1418 29.2385 30.576 28.24H30.579Z" fill="#394149"/>
</svg>
