<svg width="24" height="36" viewBox="0 0 24 36" fill="none" xmlns="http://www.w3.org/2000/svg">
<path opacity="0.55" d="M10.982 22.38V31.48C10.9726 31.8223 10.8299 32.1475 10.5844 32.3863C10.339 32.6251 10.01 32.7587 9.6675 32.7587C9.32502 32.7587 8.99605 32.6251 8.75056 32.3863C8.50508 32.1475 8.36244 31.8223 8.353 31.48V22.393C8.71898 22.6604 9.15787 22.8097 9.611 22.821C10.1048 22.8351 10.5886 22.6799 10.982 22.381V22.38ZM22.182 19.751C21.8484 19.751 21.5284 19.8835 21.2925 20.1195C21.0565 20.3554 20.924 20.6754 20.924 21.009V22.594C20.9334 22.9363 21.0761 23.2615 21.3216 23.5003C21.5671 23.7391 21.896 23.8727 22.2385 23.8727C22.581 23.8727 22.9099 23.7391 23.1554 23.5003C23.4009 23.2615 23.5436 22.9363 23.553 22.594V21.072C23.5628 20.8916 23.5336 20.7113 23.4675 20.5432C23.4014 20.3751 23.2998 20.2232 23.1697 20.0978C23.0396 19.9725 22.8841 19.8766 22.7137 19.8168C22.5432 19.757 22.3619 19.7345 22.182 19.751ZM5.5 25.827C5.04671 25.8141 4.60776 25.6653 4.24 25.4V34.52C4.24 34.6935 4.27417 34.8653 4.34056 35.0255C4.40694 35.1858 4.50425 35.3314 4.62691 35.4541C4.74958 35.5768 4.8952 35.6741 5.05548 35.7404C5.21575 35.8068 5.38752 35.841 5.561 35.841C5.73448 35.841 5.90625 35.8068 6.06652 35.7404C6.2268 35.6741 6.37242 35.5768 6.49509 35.4541C6.61775 35.3314 6.71506 35.1858 6.78144 35.0255C6.84783 34.8653 6.882 34.6935 6.882 34.52V25.462C6.47123 25.7278 5.98641 25.8556 5.498 25.827H5.5ZM18.08 17.021C17.9096 17.0125 17.7392 17.0387 17.5792 17.0981C17.4192 17.1574 17.273 17.2487 17.1494 17.3664C17.0259 17.4841 16.9275 17.6257 16.8604 17.7826C16.7933 17.9395 16.7588 18.1084 16.759 18.279V25.286C16.759 25.6364 16.8982 25.9724 17.1459 26.2201C17.3936 26.4678 17.7296 26.607 18.08 26.607C18.4304 26.607 18.7664 26.4678 19.0141 26.2201C19.2618 25.9724 19.401 25.6364 19.401 25.286V18.367C19.411 18.1854 19.3816 18.0038 19.3147 17.8347C19.2478 17.6656 19.1451 17.513 19.0135 17.3875C18.882 17.2619 18.7248 17.1664 18.5527 17.1074C18.3807 17.0485 18.1979 17.0275 18.017 17.046L18.08 17.021ZM13.9 19.713C13.4261 19.7098 12.9647 19.5604 12.579 19.285V28.431C12.579 28.7814 12.7182 29.1174 12.9659 29.3651C13.2136 29.6128 13.5496 29.752 13.9 29.752C14.2504 29.752 14.5864 29.6128 14.8341 29.3651C15.0818 29.1174 15.221 28.7814 15.221 28.431V19.3C14.8218 19.5972 14.3345 19.7521 13.837 19.74L13.9 19.713ZM2.642 26.72V1.17C2.63858 0.858507 2.51243 0.560936 2.29094 0.341884C2.06946 0.122832 1.77051 -1.88072e-05 1.459 2.15957e-09H1.183C0.871488 -1.88072e-05 0.572541 0.122832 0.351056 0.341884C0.12957 0.560936 0.0034232 0.858507 0 1.17V26.72C0.000530028 27.0333 0.125433 27.3336 0.34726 27.5549C0.569087 27.7761 0.869687 27.9003 1.183 27.9H1.46C1.77314 27.9 2.07348 27.7757 2.29509 27.5545C2.5167 27.3333 2.64147 27.0331 2.642 26.72ZM5.636 24.858H5.359C5.20361 24.8581 5.04972 24.8276 4.90613 24.7682C4.76254 24.7088 4.63208 24.6217 4.5222 24.5118C4.41232 24.4019 4.32519 24.2715 4.26578 24.1279C4.20638 23.9843 4.17587 23.8304 4.176 23.675V4.214C4.17942 3.90251 4.30557 3.60494 4.52706 3.38588C4.74854 3.16683 5.04749 3.04398 5.359 3.044H5.636C5.94751 3.04398 6.24646 3.16683 6.46794 3.38588C6.68943 3.60494 6.81558 3.90251 6.819 4.214V23.7C6.81913 23.8554 6.78862 24.0093 6.72922 24.1529C6.66981 24.2965 6.58268 24.4269 6.4728 24.5368C6.36292 24.6467 6.23246 24.7338 6.08887 24.7932C5.94528 24.8526 5.79139 24.8831 5.636 24.883V24.858ZM9.8 21.864H9.511C9.2007 21.864 8.9031 21.7407 8.68369 21.5213C8.46427 21.3019 8.341 21.0043 8.341 20.694V7.234C8.33928 7.07926 8.36827 6.92572 8.4263 6.78227C8.48433 6.63881 8.57024 6.50829 8.67905 6.39827C8.78787 6.28824 8.91743 6.2009 9.06024 6.14129C9.20304 6.08168 9.35625 6.05099 9.511 6.051H9.8C10.1115 6.05442 10.4091 6.18057 10.6281 6.40206C10.8472 6.62354 10.97 6.92249 10.97 7.234V20.694C10.97 21.0043 10.8467 21.3019 10.6273 21.5213C10.4079 21.7407 10.1103 21.864 9.8 21.864ZM13.964 18.782H13.7C13.3885 18.782 13.0895 18.6592 12.8681 18.4401C12.6466 18.2211 12.5204 17.9235 12.517 17.612V10.366C12.5066 10.2044 12.5295 10.0424 12.5843 9.89006C12.6391 9.73769 12.7246 9.59821 12.8355 9.48026C12.9464 9.3623 13.0804 9.2684 13.2291 9.20436C13.3778 9.14033 13.5381 9.10753 13.7 9.108H13.977C14.1324 9.10787 14.2863 9.13838 14.4299 9.19778C14.5735 9.25719 14.7039 9.34432 14.8138 9.4542C14.9237 9.56408 15.0108 9.69454 15.0702 9.83813C15.1296 9.98172 15.1601 10.1356 15.16 10.291V17.591C15.1623 17.7478 15.1333 17.9034 15.0749 18.0489C15.0164 18.1944 14.9297 18.3269 14.8196 18.4385C14.7095 18.5502 14.5783 18.6388 14.4337 18.6994C14.289 18.7599 14.1338 18.791 13.977 18.791L13.964 18.782ZM18.141 16.082H17.864C17.7086 16.0821 17.5547 16.0516 17.4111 15.9922C17.2675 15.9328 17.1371 15.8457 17.0272 15.7358C16.9173 15.6259 16.8302 15.4955 16.7708 15.3519C16.7114 15.2083 16.6809 15.0544 16.681 14.899V13.02C16.6844 12.7085 16.8106 12.4109 17.0321 12.1919C17.2535 11.9728 17.5525 11.85 17.864 11.85H18.141C18.4525 11.85 18.7515 11.9728 18.9729 12.1919C19.1944 12.4109 19.3206 12.7085 19.324 13.02V14.894C19.324 15.2055 19.2012 15.5045 18.9821 15.7259C18.7631 15.9474 18.4655 16.0736 18.154 16.077L18.141 16.082Z" fill="#394149"/>
</svg>
