<svg width="174" height="174" viewBox="0 0 174 174" fill="none" xmlns="http://www.w3.org/2000/svg">
<path d="M3 6C4.65685 6 6 4.65685 6 3C6 1.34315 4.65685 0 3 0C1.34315 0 0 1.34315 0 3C0 4.65685 1.34315 6 3 6Z" fill="#F3FCF7"/>
<path d="M17 6C18.6569 6 20 4.65685 20 3C20 1.34315 18.6569 0 17 0C15.3431 0 14 1.34315 14 3C14 4.65685 15.3431 6 17 6Z" fill="#F3FCF7"/>
<path d="M31 6C32.6569 6 34 4.65685 34 3C34 1.34315 32.6569 0 31 0C29.3431 0 28 1.34315 28 3C28 4.65685 29.3431 6 31 6Z" fill="#F3FCF7"/>
<path d="M45 6C46.6569 6 48 4.65685 48 3C48 1.34315 46.6569 0 45 0C43.3431 0 42 1.34315 42 3C42 4.65685 43.3431 6 45 6Z" fill="#F3FCF7"/>
<path d="M59 6C60.6569 6 62 4.65685 62 3C62 1.34315 60.6569 0 59 0C57.3431 0 56 1.34315 56 3C56 4.65685 57.3431 6 59 6Z" fill="#F3FCF7"/>
<path d="M73 6C74.6569 6 76 4.65685 76 3C76 1.34315 74.6569 0 73 0C71.3431 0 70 1.34315 70 3C70 4.65685 71.3431 6 73 6Z" fill="#F3FCF7"/>
<path d="M87 6C88.6569 6 90 4.65685 90 3C90 1.34315 88.6569 0 87 0C85.3431 0 84 1.34315 84 3C84 4.65685 85.3431 6 87 6Z" fill="#F3FCF7"/>
<path d="M101 6C102.657 6 104 4.65685 104 3C104 1.34315 102.657 0 101 0C99.3431 0 98 1.34315 98 3C98 4.65685 99.3431 6 101 6Z" fill="#F3FCF7"/>
<path d="M115 6C116.657 6 118 4.65685 118 3C118 1.34315 116.657 0 115 0C113.343 0 112 1.34315 112 3C112 4.65685 113.343 6 115 6Z" fill="#F3FCF7"/>
<path d="M129 6C130.657 6 132 4.65685 132 3C132 1.34315 130.657 0 129 0C127.343 0 126 1.34315 126 3C126 4.65685 127.343 6 129 6Z" fill="#F3FCF7"/>
<path d="M143 6C144.657 6 146 4.65685 146 3C146 1.34315 144.657 0 143 0C141.343 0 140 1.34315 140 3C140 4.65685 141.343 6 143 6Z" fill="#F3FCF7"/>
<path d="M157 6C158.657 6 160 4.65685 160 3C160 1.34315 158.657 0 157 0C155.343 0 154 1.34315 154 3C154 4.65685 155.343 6 157 6Z" fill="#F3FCF7"/>
<path d="M171 6C172.657 6 174 4.65685 174 3C174 1.34315 172.657 0 171 0C169.343 0 168 1.34315 168 3C168 4.65685 169.343 6 171 6Z" fill="#F3FCF7"/>
<path d="M3 20C4.65685 20 6 18.6569 6 17C6 15.3431 4.65685 14 3 14C1.34315 14 0 15.3431 0 17C0 18.6569 1.34315 20 3 20Z" fill="#F3FCF7"/>
<path d="M17 20C18.6569 20 20 18.6569 20 17C20 15.3431 18.6569 14 17 14C15.3431 14 14 15.3431 14 17C14 18.6569 15.3431 20 17 20Z" fill="#F3FCF7"/>
<path d="M31 20C32.6569 20 34 18.6569 34 17C34 15.3431 32.6569 14 31 14C29.3431 14 28 15.3431 28 17C28 18.6569 29.3431 20 31 20Z" fill="#F3FCF7"/>
<path d="M45 20C46.6569 20 48 18.6569 48 17C48 15.3431 46.6569 14 45 14C43.3431 14 42 15.3431 42 17C42 18.6569 43.3431 20 45 20Z" fill="#F3FCF7"/>
<path d="M59 20C60.6569 20 62 18.6569 62 17C62 15.3431 60.6569 14 59 14C57.3431 14 56 15.3431 56 17C56 18.6569 57.3431 20 59 20Z" fill="#F3FCF7"/>
<path d="M73 20C74.6569 20 76 18.6569 76 17C76 15.3431 74.6569 14 73 14C71.3431 14 70 15.3431 70 17C70 18.6569 71.3431 20 73 20Z" fill="#F3FCF7"/>
<path d="M87 20C88.6569 20 90 18.6569 90 17C90 15.3431 88.6569 14 87 14C85.3431 14 84 15.3431 84 17C84 18.6569 85.3431 20 87 20Z" fill="#F3FCF7"/>
<path d="M101 20C102.657 20 104 18.6569 104 17C104 15.3431 102.657 14 101 14C99.3431 14 98 15.3431 98 17C98 18.6569 99.3431 20 101 20Z" fill="#F3FCF7"/>
<path d="M115 20C116.657 20 118 18.6569 118 17C118 15.3431 116.657 14 115 14C113.343 14 112 15.3431 112 17C112 18.6569 113.343 20 115 20Z" fill="#F3FCF7"/>
<path d="M129 20C130.657 20 132 18.6569 132 17C132 15.3431 130.657 14 129 14C127.343 14 126 15.3431 126 17C126 18.6569 127.343 20 129 20Z" fill="#F3FCF7"/>
<path d="M143 20C144.657 20 146 18.6569 146 17C146 15.3431 144.657 14 143 14C141.343 14 140 15.3431 140 17C140 18.6569 141.343 20 143 20Z" fill="#F3FCF7"/>
<path d="M157 20C158.657 20 160 18.6569 160 17C160 15.3431 158.657 14 157 14C155.343 14 154 15.3431 154 17C154 18.6569 155.343 20 157 20Z" fill="#F3FCF7"/>
<path d="M171 20C172.657 20 174 18.6569 174 17C174 15.3431 172.657 14 171 14C169.343 14 168 15.3431 168 17C168 18.6569 169.343 20 171 20Z" fill="#F3FCF7"/>
<path d="M3 34C4.65685 34 6 32.6569 6 31C6 29.3431 4.65685 28 3 28C1.34315 28 0 29.3431 0 31C0 32.6569 1.34315 34 3 34Z" fill="#F3FCF7"/>
<path d="M17 34C18.6569 34 20 32.6569 20 31C20 29.3431 18.6569 28 17 28C15.3431 28 14 29.3431 14 31C14 32.6569 15.3431 34 17 34Z" fill="#F3FCF7"/>
<path d="M31 34C32.6569 34 34 32.6569 34 31C34 29.3431 32.6569 28 31 28C29.3431 28 28 29.3431 28 31C28 32.6569 29.3431 34 31 34Z" fill="#F3FCF7"/>
<path d="M45 34C46.6569 34 48 32.6569 48 31C48 29.3431 46.6569 28 45 28C43.3431 28 42 29.3431 42 31C42 32.6569 43.3431 34 45 34Z" fill="#F3FCF7"/>
<path d="M59 34C60.6569 34 62 32.6569 62 31C62 29.3431 60.6569 28 59 28C57.3431 28 56 29.3431 56 31C56 32.6569 57.3431 34 59 34Z" fill="#F3FCF7"/>
<path d="M73 34C74.6569 34 76 32.6569 76 31C76 29.3431 74.6569 28 73 28C71.3431 28 70 29.3431 70 31C70 32.6569 71.3431 34 73 34Z" fill="#F3FCF7"/>
<path d="M87 34C88.6569 34 90 32.6569 90 31C90 29.3431 88.6569 28 87 28C85.3431 28 84 29.3431 84 31C84 32.6569 85.3431 34 87 34Z" fill="#F3FCF7"/>
<path d="M101 34C102.657 34 104 32.6569 104 31C104 29.3431 102.657 28 101 28C99.3431 28 98 29.3431 98 31C98 32.6569 99.3431 34 101 34Z" fill="#F3FCF7"/>
<path d="M115 34C116.657 34 118 32.6569 118 31C118 29.3431 116.657 28 115 28C113.343 28 112 29.3431 112 31C112 32.6569 113.343 34 115 34Z" fill="#F3FCF7"/>
<path d="M129 34C130.657 34 132 32.6569 132 31C132 29.3431 130.657 28 129 28C127.343 28 126 29.3431 126 31C126 32.6569 127.343 34 129 34Z" fill="#F3FCF7"/>
<path d="M143 34C144.657 34 146 32.6569 146 31C146 29.3431 144.657 28 143 28C141.343 28 140 29.3431 140 31C140 32.6569 141.343 34 143 34Z" fill="#F3FCF7"/>
<path d="M157 34C158.657 34 160 32.6569 160 31C160 29.3431 158.657 28 157 28C155.343 28 154 29.3431 154 31C154 32.6569 155.343 34 157 34Z" fill="#F3FCF7"/>
<path d="M171 34C172.657 34 174 32.6569 174 31C174 29.3431 172.657 28 171 28C169.343 28 168 29.3431 168 31C168 32.6569 169.343 34 171 34Z" fill="#F3FCF7"/>
<path d="M3 48C4.65685 48 6 46.6569 6 45C6 43.3431 4.65685 42 3 42C1.34315 42 0 43.3431 0 45C0 46.6569 1.34315 48 3 48Z" fill="#F3FCF7"/>
<path d="M17 48C18.6569 48 20 46.6569 20 45C20 43.3431 18.6569 42 17 42C15.3431 42 14 43.3431 14 45C14 46.6569 15.3431 48 17 48Z" fill="#F3FCF7"/>
<path d="M31 48C32.6569 48 34 46.6569 34 45C34 43.3431 32.6569 42 31 42C29.3431 42 28 43.3431 28 45C28 46.6569 29.3431 48 31 48Z" fill="#F3FCF7"/>
<path d="M45 48C46.6569 48 48 46.6569 48 45C48 43.3431 46.6569 42 45 42C43.3431 42 42 43.3431 42 45C42 46.6569 43.3431 48 45 48Z" fill="#F3FCF7"/>
<path d="M59 48C60.6569 48 62 46.6569 62 45C62 43.3431 60.6569 42 59 42C57.3431 42 56 43.3431 56 45C56 46.6569 57.3431 48 59 48Z" fill="#F3FCF7"/>
<path d="M73 48C74.6569 48 76 46.6569 76 45C76 43.3431 74.6569 42 73 42C71.3431 42 70 43.3431 70 45C70 46.6569 71.3431 48 73 48Z" fill="#F3FCF7"/>
<path d="M87 48C88.6569 48 90 46.6569 90 45C90 43.3431 88.6569 42 87 42C85.3431 42 84 43.3431 84 45C84 46.6569 85.3431 48 87 48Z" fill="#F3FCF7"/>
<path d="M101 48C102.657 48 104 46.6569 104 45C104 43.3431 102.657 42 101 42C99.3431 42 98 43.3431 98 45C98 46.6569 99.3431 48 101 48Z" fill="#F3FCF7"/>
<path d="M115 48C116.657 48 118 46.6569 118 45C118 43.3431 116.657 42 115 42C113.343 42 112 43.3431 112 45C112 46.6569 113.343 48 115 48Z" fill="#F3FCF7"/>
<path d="M129 48C130.657 48 132 46.6569 132 45C132 43.3431 130.657 42 129 42C127.343 42 126 43.3431 126 45C126 46.6569 127.343 48 129 48Z" fill="#F3FCF7"/>
<path d="M143 48C144.657 48 146 46.6569 146 45C146 43.3431 144.657 42 143 42C141.343 42 140 43.3431 140 45C140 46.6569 141.343 48 143 48Z" fill="#F3FCF7"/>
<path d="M157 48C158.657 48 160 46.6569 160 45C160 43.3431 158.657 42 157 42C155.343 42 154 43.3431 154 45C154 46.6569 155.343 48 157 48Z" fill="#F3FCF7"/>
<path d="M171 48C172.657 48 174 46.6569 174 45C174 43.3431 172.657 42 171 42C169.343 42 168 43.3431 168 45C168 46.6569 169.343 48 171 48Z" fill="#F3FCF7"/>
<path d="M3 62C4.65685 62 6 60.6569 6 59C6 57.3431 4.65685 56 3 56C1.34315 56 0 57.3431 0 59C0 60.6569 1.34315 62 3 62Z" fill="#F3FCF7"/>
<path d="M17 62C18.6569 62 20 60.6569 20 59C20 57.3431 18.6569 56 17 56C15.3431 56 14 57.3431 14 59C14 60.6569 15.3431 62 17 62Z" fill="#F3FCF7"/>
<path d="M31 62C32.6569 62 34 60.6569 34 59C34 57.3431 32.6569 56 31 56C29.3431 56 28 57.3431 28 59C28 60.6569 29.3431 62 31 62Z" fill="#F3FCF7"/>
<path d="M45 62C46.6569 62 48 60.6569 48 59C48 57.3431 46.6569 56 45 56C43.3431 56 42 57.3431 42 59C42 60.6569 43.3431 62 45 62Z" fill="#F3FCF7"/>
<path d="M59 62C60.6569 62 62 60.6569 62 59C62 57.3431 60.6569 56 59 56C57.3431 56 56 57.3431 56 59C56 60.6569 57.3431 62 59 62Z" fill="#F3FCF7"/>
<path d="M73 62C74.6569 62 76 60.6569 76 59C76 57.3431 74.6569 56 73 56C71.3431 56 70 57.3431 70 59C70 60.6569 71.3431 62 73 62Z" fill="#F3FCF7"/>
<path d="M87 62C88.6569 62 90 60.6569 90 59C90 57.3431 88.6569 56 87 56C85.3431 56 84 57.3431 84 59C84 60.6569 85.3431 62 87 62Z" fill="#F3FCF7"/>
<path d="M101 62C102.657 62 104 60.6569 104 59C104 57.3431 102.657 56 101 56C99.3431 56 98 57.3431 98 59C98 60.6569 99.3431 62 101 62Z" fill="#F3FCF7"/>
<path d="M115 62C116.657 62 118 60.6569 118 59C118 57.3431 116.657 56 115 56C113.343 56 112 57.3431 112 59C112 60.6569 113.343 62 115 62Z" fill="#F3FCF7"/>
<path d="M129 62C130.657 62 132 60.6569 132 59C132 57.3431 130.657 56 129 56C127.343 56 126 57.3431 126 59C126 60.6569 127.343 62 129 62Z" fill="#F3FCF7"/>
<path d="M143 62C144.657 62 146 60.6569 146 59C146 57.3431 144.657 56 143 56C141.343 56 140 57.3431 140 59C140 60.6569 141.343 62 143 62Z" fill="#F3FCF7"/>
<path d="M157 62C158.657 62 160 60.6569 160 59C160 57.3431 158.657 56 157 56C155.343 56 154 57.3431 154 59C154 60.6569 155.343 62 157 62Z" fill="#F3FCF7"/>
<path d="M171 62C172.657 62 174 60.6569 174 59C174 57.3431 172.657 56 171 56C169.343 56 168 57.3431 168 59C168 60.6569 169.343 62 171 62Z" fill="#F3FCF7"/>
<path d="M3 76C4.65685 76 6 74.6569 6 73C6 71.3431 4.65685 70 3 70C1.34315 70 0 71.3431 0 73C0 74.6569 1.34315 76 3 76Z" fill="#F3FCF7"/>
<path d="M17 76C18.6569 76 20 74.6569 20 73C20 71.3431 18.6569 70 17 70C15.3431 70 14 71.3431 14 73C14 74.6569 15.3431 76 17 76Z" fill="#F3FCF7"/>
<path d="M31 76C32.6569 76 34 74.6569 34 73C34 71.3431 32.6569 70 31 70C29.3431 70 28 71.3431 28 73C28 74.6569 29.3431 76 31 76Z" fill="#F3FCF7"/>
<path d="M45 76C46.6569 76 48 74.6569 48 73C48 71.3431 46.6569 70 45 70C43.3431 70 42 71.3431 42 73C42 74.6569 43.3431 76 45 76Z" fill="#F3FCF7"/>
<path d="M59 76C60.6569 76 62 74.6569 62 73C62 71.3431 60.6569 70 59 70C57.3431 70 56 71.3431 56 73C56 74.6569 57.3431 76 59 76Z" fill="#F3FCF7"/>
<path d="M73 76C74.6569 76 76 74.6569 76 73C76 71.3431 74.6569 70 73 70C71.3431 70 70 71.3431 70 73C70 74.6569 71.3431 76 73 76Z" fill="#F3FCF7"/>
<path d="M87 76C88.6569 76 90 74.6569 90 73C90 71.3431 88.6569 70 87 70C85.3431 70 84 71.3431 84 73C84 74.6569 85.3431 76 87 76Z" fill="#F3FCF7"/>
<path d="M101 76C102.657 76 104 74.6569 104 73C104 71.3431 102.657 70 101 70C99.3431 70 98 71.3431 98 73C98 74.6569 99.3431 76 101 76Z" fill="#F3FCF7"/>
<path d="M115 76C116.657 76 118 74.6569 118 73C118 71.3431 116.657 70 115 70C113.343 70 112 71.3431 112 73C112 74.6569 113.343 76 115 76Z" fill="#F3FCF7"/>
<path d="M129 76C130.657 76 132 74.6569 132 73C132 71.3431 130.657 70 129 70C127.343 70 126 71.3431 126 73C126 74.6569 127.343 76 129 76Z" fill="#F3FCF7"/>
<path d="M143 76C144.657 76 146 74.6569 146 73C146 71.3431 144.657 70 143 70C141.343 70 140 71.3431 140 73C140 74.6569 141.343 76 143 76Z" fill="#F3FCF7"/>
<path d="M157 76C158.657 76 160 74.6569 160 73C160 71.3431 158.657 70 157 70C155.343 70 154 71.3431 154 73C154 74.6569 155.343 76 157 76Z" fill="#F3FCF7"/>
<path d="M171 76C172.657 76 174 74.6569 174 73C174 71.3431 172.657 70 171 70C169.343 70 168 71.3431 168 73C168 74.6569 169.343 76 171 76Z" fill="#F3FCF7"/>
<path d="M3 90C4.65685 90 6 88.6569 6 87C6 85.3431 4.65685 84 3 84C1.34315 84 0 85.3431 0 87C0 88.6569 1.34315 90 3 90Z" fill="#F3FCF7"/>
<path d="M17 90C18.6569 90 20 88.6569 20 87C20 85.3431 18.6569 84 17 84C15.3431 84 14 85.3431 14 87C14 88.6569 15.3431 90 17 90Z" fill="#F3FCF7"/>
<path d="M31 90C32.6569 90 34 88.6569 34 87C34 85.3431 32.6569 84 31 84C29.3431 84 28 85.3431 28 87C28 88.6569 29.3431 90 31 90Z" fill="#F3FCF7"/>
<path d="M45 90C46.6569 90 48 88.6569 48 87C48 85.3431 46.6569 84 45 84C43.3431 84 42 85.3431 42 87C42 88.6569 43.3431 90 45 90Z" fill="#F3FCF7"/>
<path d="M59 90C60.6569 90 62 88.6569 62 87C62 85.3431 60.6569 84 59 84C57.3431 84 56 85.3431 56 87C56 88.6569 57.3431 90 59 90Z" fill="#F3FCF7"/>
<path d="M73 90C74.6569 90 76 88.6569 76 87C76 85.3431 74.6569 84 73 84C71.3431 84 70 85.3431 70 87C70 88.6569 71.3431 90 73 90Z" fill="#F3FCF7"/>
<path d="M87 90C88.6569 90 90 88.6569 90 87C90 85.3431 88.6569 84 87 84C85.3431 84 84 85.3431 84 87C84 88.6569 85.3431 90 87 90Z" fill="#F3FCF7"/>
<path d="M101 90C102.657 90 104 88.6569 104 87C104 85.3431 102.657 84 101 84C99.3431 84 98 85.3431 98 87C98 88.6569 99.3431 90 101 90Z" fill="#F3FCF7"/>
<path d="M115 90C116.657 90 118 88.6569 118 87C118 85.3431 116.657 84 115 84C113.343 84 112 85.3431 112 87C112 88.6569 113.343 90 115 90Z" fill="#F3FCF7"/>
<path d="M129 90C130.657 90 132 88.6569 132 87C132 85.3431 130.657 84 129 84C127.343 84 126 85.3431 126 87C126 88.6569 127.343 90 129 90Z" fill="#F3FCF7"/>
<path d="M143 90C144.657 90 146 88.6569 146 87C146 85.3431 144.657 84 143 84C141.343 84 140 85.3431 140 87C140 88.6569 141.343 90 143 90Z" fill="#F3FCF7"/>
<path d="M157 90C158.657 90 160 88.6569 160 87C160 85.3431 158.657 84 157 84C155.343 84 154 85.3431 154 87C154 88.6569 155.343 90 157 90Z" fill="#F3FCF7"/>
<path d="M171 90C172.657 90 174 88.6569 174 87C174 85.3431 172.657 84 171 84C169.343 84 168 85.3431 168 87C168 88.6569 169.343 90 171 90Z" fill="#F3FCF7"/>
<path d="M3 104C4.65685 104 6 102.657 6 101C6 99.3431 4.65685 98 3 98C1.34315 98 0 99.3431 0 101C0 102.657 1.34315 104 3 104Z" fill="#F3FCF7"/>
<path d="M17 104C18.6569 104 20 102.657 20 101C20 99.3431 18.6569 98 17 98C15.3431 98 14 99.3431 14 101C14 102.657 15.3431 104 17 104Z" fill="#F3FCF7"/>
<path d="M31 104C32.6569 104 34 102.657 34 101C34 99.3431 32.6569 98 31 98C29.3431 98 28 99.3431 28 101C28 102.657 29.3431 104 31 104Z" fill="#F3FCF7"/>
<path d="M45 104C46.6569 104 48 102.657 48 101C48 99.3431 46.6569 98 45 98C43.3431 98 42 99.3431 42 101C42 102.657 43.3431 104 45 104Z" fill="#F3FCF7"/>
<path d="M59 104C60.6569 104 62 102.657 62 101C62 99.3431 60.6569 98 59 98C57.3431 98 56 99.3431 56 101C56 102.657 57.3431 104 59 104Z" fill="#F3FCF7"/>
<path d="M73 104C74.6569 104 76 102.657 76 101C76 99.3431 74.6569 98 73 98C71.3431 98 70 99.3431 70 101C70 102.657 71.3431 104 73 104Z" fill="#F3FCF7"/>
<path d="M87 104C88.6569 104 90 102.657 90 101C90 99.3431 88.6569 98 87 98C85.3431 98 84 99.3431 84 101C84 102.657 85.3431 104 87 104Z" fill="#F3FCF7"/>
<path d="M101 104C102.657 104 104 102.657 104 101C104 99.3431 102.657 98 101 98C99.3431 98 98 99.3431 98 101C98 102.657 99.3431 104 101 104Z" fill="#F3FCF7"/>
<path d="M115 104C116.657 104 118 102.657 118 101C118 99.3431 116.657 98 115 98C113.343 98 112 99.3431 112 101C112 102.657 113.343 104 115 104Z" fill="#F3FCF7"/>
<path d="M129 104C130.657 104 132 102.657 132 101C132 99.3431 130.657 98 129 98C127.343 98 126 99.3431 126 101C126 102.657 127.343 104 129 104Z" fill="#F3FCF7"/>
<path d="M143 104C144.657 104 146 102.657 146 101C146 99.3431 144.657 98 143 98C141.343 98 140 99.3431 140 101C140 102.657 141.343 104 143 104Z" fill="#F3FCF7"/>
<path d="M157 104C158.657 104 160 102.657 160 101C160 99.3431 158.657 98 157 98C155.343 98 154 99.3431 154 101C154 102.657 155.343 104 157 104Z" fill="#F3FCF7"/>
<path d="M171 104C172.657 104 174 102.657 174 101C174 99.3431 172.657 98 171 98C169.343 98 168 99.3431 168 101C168 102.657 169.343 104 171 104Z" fill="#F3FCF7"/>
<path d="M3 118C4.65685 118 6 116.657 6 115C6 113.343 4.65685 112 3 112C1.34315 112 0 113.343 0 115C0 116.657 1.34315 118 3 118Z" fill="#F3FCF7"/>
<path d="M17 118C18.6569 118 20 116.657 20 115C20 113.343 18.6569 112 17 112C15.3431 112 14 113.343 14 115C14 116.657 15.3431 118 17 118Z" fill="#F3FCF7"/>
<path d="M31 118C32.6569 118 34 116.657 34 115C34 113.343 32.6569 112 31 112C29.3431 112 28 113.343 28 115C28 116.657 29.3431 118 31 118Z" fill="#F3FCF7"/>
<path d="M45 118C46.6569 118 48 116.657 48 115C48 113.343 46.6569 112 45 112C43.3431 112 42 113.343 42 115C42 116.657 43.3431 118 45 118Z" fill="#F3FCF7"/>
<path d="M59 118C60.6569 118 62 116.657 62 115C62 113.343 60.6569 112 59 112C57.3431 112 56 113.343 56 115C56 116.657 57.3431 118 59 118Z" fill="#F3FCF7"/>
<path d="M73 118C74.6569 118 76 116.657 76 115C76 113.343 74.6569 112 73 112C71.3431 112 70 113.343 70 115C70 116.657 71.3431 118 73 118Z" fill="#F3FCF7"/>
<path d="M87 118C88.6569 118 90 116.657 90 115C90 113.343 88.6569 112 87 112C85.3431 112 84 113.343 84 115C84 116.657 85.3431 118 87 118Z" fill="#F3FCF7"/>
<path d="M101 118C102.657 118 104 116.657 104 115C104 113.343 102.657 112 101 112C99.3431 112 98 113.343 98 115C98 116.657 99.3431 118 101 118Z" fill="#F3FCF7"/>
<path d="M115 118C116.657 118 118 116.657 118 115C118 113.343 116.657 112 115 112C113.343 112 112 113.343 112 115C112 116.657 113.343 118 115 118Z" fill="#F3FCF7"/>
<path d="M129 118C130.657 118 132 116.657 132 115C132 113.343 130.657 112 129 112C127.343 112 126 113.343 126 115C126 116.657 127.343 118 129 118Z" fill="#F3FCF7"/>
<path d="M143 118C144.657 118 146 116.657 146 115C146 113.343 144.657 112 143 112C141.343 112 140 113.343 140 115C140 116.657 141.343 118 143 118Z" fill="#F3FCF7"/>
<path d="M157 118C158.657 118 160 116.657 160 115C160 113.343 158.657 112 157 112C155.343 112 154 113.343 154 115C154 116.657 155.343 118 157 118Z" fill="#F3FCF7"/>
<path d="M171 118C172.657 118 174 116.657 174 115C174 113.343 172.657 112 171 112C169.343 112 168 113.343 168 115C168 116.657 169.343 118 171 118Z" fill="#F3FCF7"/>
<path d="M3 132C4.65685 132 6 130.657 6 129C6 127.343 4.65685 126 3 126C1.34315 126 0 127.343 0 129C0 130.657 1.34315 132 3 132Z" fill="#F3FCF7"/>
<path d="M17 132C18.6569 132 20 130.657 20 129C20 127.343 18.6569 126 17 126C15.3431 126 14 127.343 14 129C14 130.657 15.3431 132 17 132Z" fill="#F3FCF7"/>
<path d="M31 132C32.6569 132 34 130.657 34 129C34 127.343 32.6569 126 31 126C29.3431 126 28 127.343 28 129C28 130.657 29.3431 132 31 132Z" fill="#F3FCF7"/>
<path d="M45 132C46.6569 132 48 130.657 48 129C48 127.343 46.6569 126 45 126C43.3431 126 42 127.343 42 129C42 130.657 43.3431 132 45 132Z" fill="#F3FCF7"/>
<path d="M59 132C60.6569 132 62 130.657 62 129C62 127.343 60.6569 126 59 126C57.3431 126 56 127.343 56 129C56 130.657 57.3431 132 59 132Z" fill="#F3FCF7"/>
<path d="M73 132C74.6569 132 76 130.657 76 129C76 127.343 74.6569 126 73 126C71.3431 126 70 127.343 70 129C70 130.657 71.3431 132 73 132Z" fill="#F3FCF7"/>
<path d="M87 132C88.6569 132 90 130.657 90 129C90 127.343 88.6569 126 87 126C85.3431 126 84 127.343 84 129C84 130.657 85.3431 132 87 132Z" fill="#F3FCF7"/>
<path d="M101 132C102.657 132 104 130.657 104 129C104 127.343 102.657 126 101 126C99.3431 126 98 127.343 98 129C98 130.657 99.3431 132 101 132Z" fill="#F3FCF7"/>
<path d="M115 132C116.657 132 118 130.657 118 129C118 127.343 116.657 126 115 126C113.343 126 112 127.343 112 129C112 130.657 113.343 132 115 132Z" fill="#F3FCF7"/>
<path d="M129 132C130.657 132 132 130.657 132 129C132 127.343 130.657 126 129 126C127.343 126 126 127.343 126 129C126 130.657 127.343 132 129 132Z" fill="#F3FCF7"/>
<path d="M143 132C144.657 132 146 130.657 146 129C146 127.343 144.657 126 143 126C141.343 126 140 127.343 140 129C140 130.657 141.343 132 143 132Z" fill="#F3FCF7"/>
<path d="M157 132C158.657 132 160 130.657 160 129C160 127.343 158.657 126 157 126C155.343 126 154 127.343 154 129C154 130.657 155.343 132 157 132Z" fill="#F3FCF7"/>
<path d="M171 132C172.657 132 174 130.657 174 129C174 127.343 172.657 126 171 126C169.343 126 168 127.343 168 129C168 130.657 169.343 132 171 132Z" fill="#F3FCF7"/>
<path d="M3 146C4.65685 146 6 144.657 6 143C6 141.343 4.65685 140 3 140C1.34315 140 0 141.343 0 143C0 144.657 1.34315 146 3 146Z" fill="#F3FCF7"/>
<path d="M17 146C18.6569 146 20 144.657 20 143C20 141.343 18.6569 140 17 140C15.3431 140 14 141.343 14 143C14 144.657 15.3431 146 17 146Z" fill="#F3FCF7"/>
<path d="M31 146C32.6569 146 34 144.657 34 143C34 141.343 32.6569 140 31 140C29.3431 140 28 141.343 28 143C28 144.657 29.3431 146 31 146Z" fill="#F3FCF7"/>
<path d="M45 146C46.6569 146 48 144.657 48 143C48 141.343 46.6569 140 45 140C43.3431 140 42 141.343 42 143C42 144.657 43.3431 146 45 146Z" fill="#F3FCF7"/>
<path d="M59 146C60.6569 146 62 144.657 62 143C62 141.343 60.6569 140 59 140C57.3431 140 56 141.343 56 143C56 144.657 57.3431 146 59 146Z" fill="#F3FCF7"/>
<path d="M73 146C74.6569 146 76 144.657 76 143C76 141.343 74.6569 140 73 140C71.3431 140 70 141.343 70 143C70 144.657 71.3431 146 73 146Z" fill="#F3FCF7"/>
<path d="M87 146C88.6569 146 90 144.657 90 143C90 141.343 88.6569 140 87 140C85.3431 140 84 141.343 84 143C84 144.657 85.3431 146 87 146Z" fill="#F3FCF7"/>
<path d="M101 146C102.657 146 104 144.657 104 143C104 141.343 102.657 140 101 140C99.3431 140 98 141.343 98 143C98 144.657 99.3431 146 101 146Z" fill="#F3FCF7"/>
<path d="M115 146C116.657 146 118 144.657 118 143C118 141.343 116.657 140 115 140C113.343 140 112 141.343 112 143C112 144.657 113.343 146 115 146Z" fill="#F3FCF7"/>
<path d="M129 146C130.657 146 132 144.657 132 143C132 141.343 130.657 140 129 140C127.343 140 126 141.343 126 143C126 144.657 127.343 146 129 146Z" fill="#F3FCF7"/>
<path d="M143 146C144.657 146 146 144.657 146 143C146 141.343 144.657 140 143 140C141.343 140 140 141.343 140 143C140 144.657 141.343 146 143 146Z" fill="#F3FCF7"/>
<path d="M157 146C158.657 146 160 144.657 160 143C160 141.343 158.657 140 157 140C155.343 140 154 141.343 154 143C154 144.657 155.343 146 157 146Z" fill="#F3FCF7"/>
<path d="M171 146C172.657 146 174 144.657 174 143C174 141.343 172.657 140 171 140C169.343 140 168 141.343 168 143C168 144.657 169.343 146 171 146Z" fill="#F3FCF7"/>
<path d="M3 160C4.65685 160 6 158.657 6 157C6 155.343 4.65685 154 3 154C1.34315 154 0 155.343 0 157C0 158.657 1.34315 160 3 160Z" fill="#F3FCF7"/>
<path d="M17 160C18.6569 160 20 158.657 20 157C20 155.343 18.6569 154 17 154C15.3431 154 14 155.343 14 157C14 158.657 15.3431 160 17 160Z" fill="#F3FCF7"/>
<path d="M31 160C32.6569 160 34 158.657 34 157C34 155.343 32.6569 154 31 154C29.3431 154 28 155.343 28 157C28 158.657 29.3431 160 31 160Z" fill="#F3FCF7"/>
<path d="M45 160C46.6569 160 48 158.657 48 157C48 155.343 46.6569 154 45 154C43.3431 154 42 155.343 42 157C42 158.657 43.3431 160 45 160Z" fill="#F3FCF7"/>
<path d="M59 160C60.6569 160 62 158.657 62 157C62 155.343 60.6569 154 59 154C57.3431 154 56 155.343 56 157C56 158.657 57.3431 160 59 160Z" fill="#F3FCF7"/>
<path d="M73 160C74.6569 160 76 158.657 76 157C76 155.343 74.6569 154 73 154C71.3431 154 70 155.343 70 157C70 158.657 71.3431 160 73 160Z" fill="#F3FCF7"/>
<path d="M87 160C88.6569 160 90 158.657 90 157C90 155.343 88.6569 154 87 154C85.3431 154 84 155.343 84 157C84 158.657 85.3431 160 87 160Z" fill="#F3FCF7"/>
<path d="M101 160C102.657 160 104 158.657 104 157C104 155.343 102.657 154 101 154C99.3431 154 98 155.343 98 157C98 158.657 99.3431 160 101 160Z" fill="#F3FCF7"/>
<path d="M115 160C116.657 160 118 158.657 118 157C118 155.343 116.657 154 115 154C113.343 154 112 155.343 112 157C112 158.657 113.343 160 115 160Z" fill="#F3FCF7"/>
<path d="M129 160C130.657 160 132 158.657 132 157C132 155.343 130.657 154 129 154C127.343 154 126 155.343 126 157C126 158.657 127.343 160 129 160Z" fill="#F3FCF7"/>
<path d="M143 160C144.657 160 146 158.657 146 157C146 155.343 144.657 154 143 154C141.343 154 140 155.343 140 157C140 158.657 141.343 160 143 160Z" fill="#F3FCF7"/>
<path d="M157 160C158.657 160 160 158.657 160 157C160 155.343 158.657 154 157 154C155.343 154 154 155.343 154 157C154 158.657 155.343 160 157 160Z" fill="#F3FCF7"/>
<path d="M171 160C172.657 160 174 158.657 174 157C174 155.343 172.657 154 171 154C169.343 154 168 155.343 168 157C168 158.657 169.343 160 171 160Z" fill="#F3FCF7"/>
<path d="M3 174C4.65685 174 6 172.657 6 171C6 169.343 4.65685 168 3 168C1.34315 168 0 169.343 0 171C0 172.657 1.34315 174 3 174Z" fill="#F3FCF7"/>
<path d="M17 174C18.6569 174 20 172.657 20 171C20 169.343 18.6569 168 17 168C15.3431 168 14 169.343 14 171C14 172.657 15.3431 174 17 174Z" fill="#F3FCF7"/>
<path d="M31 174C32.6569 174 34 172.657 34 171C34 169.343 32.6569 168 31 168C29.3431 168 28 169.343 28 171C28 172.657 29.3431 174 31 174Z" fill="#F3FCF7"/>
<path d="M45 174C46.6569 174 48 172.657 48 171C48 169.343 46.6569 168 45 168C43.3431 168 42 169.343 42 171C42 172.657 43.3431 174 45 174Z" fill="#F3FCF7"/>
<path d="M59 174C60.6569 174 62 172.657 62 171C62 169.343 60.6569 168 59 168C57.3431 168 56 169.343 56 171C56 172.657 57.3431 174 59 174Z" fill="#F3FCF7"/>
<path d="M73 174C74.6569 174 76 172.657 76 171C76 169.343 74.6569 168 73 168C71.3431 168 70 169.343 70 171C70 172.657 71.3431 174 73 174Z" fill="#F3FCF7"/>
<path d="M87 174C88.6569 174 90 172.657 90 171C90 169.343 88.6569 168 87 168C85.3431 168 84 169.343 84 171C84 172.657 85.3431 174 87 174Z" fill="#F3FCF7"/>
<path d="M101 174C102.657 174 104 172.657 104 171C104 169.343 102.657 168 101 168C99.3431 168 98 169.343 98 171C98 172.657 99.3431 174 101 174Z" fill="#F3FCF7"/>
<path d="M115 174C116.657 174 118 172.657 118 171C118 169.343 116.657 168 115 168C113.343 168 112 169.343 112 171C112 172.657 113.343 174 115 174Z" fill="#F3FCF7"/>
<path d="M129 174C130.657 174 132 172.657 132 171C132 169.343 130.657 168 129 168C127.343 168 126 169.343 126 171C126 172.657 127.343 174 129 174Z" fill="#F3FCF7"/>
<path d="M143 174C144.657 174 146 172.657 146 171C146 169.343 144.657 168 143 168C141.343 168 140 169.343 140 171C140 172.657 141.343 174 143 174Z" fill="#F3FCF7"/>
<path d="M157 174C158.657 174 160 172.657 160 171C160 169.343 158.657 168 157 168C155.343 168 154 169.343 154 171C154 172.657 155.343 174 157 174Z" fill="#F3FCF7"/>
<path d="M171 174C172.657 174 174 172.657 174 171C174 169.343 172.657 168 171 168C169.343 168 168 169.343 168 171C168 172.657 169.343 174 171 174Z" fill="#F3FCF7"/>
</svg>
